<svg xmlns="http://www.w3.org/2000/svg" xmlns:xlink="http://www.w3.org/1999/xlink" viewBox="0 0 364.89993 227"><defs><linearGradient id="ae0e546a-f393-45fd-87c9-0151e4ec3bd9" x1="221.31478" y1="-40.62978" x2="353.47034" y2="237.73232" gradientTransform="translate(0 1)" gradientUnits="userSpaceOnUse"><stop offset="0" stop-color="#f6cb6f"/><stop offset="0.2" stop-color="#f6cb6f" stop-opacity="0.8"/><stop offset="0.6" stop-color="#f6cb6f" stop-opacity="0.4"/><stop offset="0.9" stop-color="#f6cb6f" stop-opacity="0.1"/><stop offset="1" stop-color="#f6cb6f" stop-opacity="0"/></linearGradient></defs><g id="aba330b6-a592-404e-b51f-4fc935c7a003" data-name="Layer 2"><g id="a345b628-3048-453b-990f-1a59f118dc23" data-name="Layer 1"><polygon points="125.6 155 57.3 11.5 107.7 3.2 53.4 3.2 53.1 3.2 0 3.2 111.7 223.5 172.9 223.5 172.9 46.6 125.6 72.6 125.6 155" style="fill:#fff"/><path d="M318.1,180.2a207.72939,207.72939,0,0,1-29.4,2c-24.8,0-31.1-14.2-31.1-31.4V75c0-17.2,6.3-30.1,31.1-30.1a405.27249,405.27249,0,0,1,64.6,5.3l6-43.3A394.89867,394.89867,0,0,0,288.8,0C235.2,0,208,26.8,208,67.5v92c0,40.1,27.2,67.5,80.8,67.5s51.9-3.6,76.1-10.5V86.7l-46.7,26v67.5Z" style="fill:#ba9547"/><path d="M318.1,180.2a207.72939,207.72939,0,0,1-29.4,2c-24.8,0-31.1-14.2-31.1-31.4V75c0-17.2,6.3-30.1,31.1-30.1a405.27249,405.27249,0,0,1,64.6,5.3l6-43.3A394.89867,394.89867,0,0,0,288.8,0C235.2,0,208,26.8,208,67.5v92c0,40.1,27.2,67.5,80.8,67.5s51.9-3.6,76.1-10.5V86.7l-46.7,26v67.5Z" style="fill:url(#ae0e546a-f393-45fd-87c9-0151e4ec3bd9)"/></g></g></svg>